<svg width="73" height="32" viewBox="0 0 73 32" fill="none" xmlns="http://www.w3.org/2000/svg">
<g clip-path="url(#clip0_1501_3280)">
<path d="M22.595 9.89697L13.4198 27.8459V27.8481L11.2975 32.0002L9.17404 27.8481V27.8459L0 9.89697H4.24689L11.2975 23.6928L18.3492 9.89697H22.595Z" fill="#034089"/>
<path d="M72.6902 9.87939L63.515 27.8295V27.8317L61.3927 31.9826L59.2693 27.8317V27.8295L50.0952 9.87939H54.3421L61.3927 23.6752L68.4444 9.87939H72.6902Z" fill="#034089"/>
<path d="M48.5493 9.89502H44.7544V32.0005H48.5493V9.89502Z" fill="#034089"/>
<path d="M42.0255 28.1858V32.0005H30.4414C29.4414 31.9464 28.4966 31.6796 27.6531 31.2474C26.3422 30.576 25.2728 29.5011 24.6091 28.1869C24.1295 27.2409 23.8594 26.1715 23.8594 25.0403V9.89502H27.6542V25.0293C27.6542 26.6941 28.9365 28.0579 30.5682 28.1869C30.652 28.1946 30.7369 28.1979 30.8229 28.1979C30.9089 28.1979 30.9938 28.1946 31.0775 28.1869H42.0288L42.0255 28.1858Z" fill="#034089"/>
<path d="M61.3936 -0.000976562C57.5392 -0.000976562 54.4136 2.97802 54.4136 6.6494L57.0949 11.8897L61.3936 20.2897L65.6923 11.8919L68.3736 6.6505C68.3736 2.97913 65.2491 0.000125954 61.3936 0.000125954V-0.000976562ZM61.3936 9.39797C59.7696 9.39797 58.4532 8.08267 58.4532 6.45977C58.4532 4.83686 59.7685 3.51936 61.3936 3.51936C63.0187 3.51936 64.334 4.83466 64.334 6.45977C64.334 8.08488 63.0187 9.39797 61.3936 9.39797Z" fill="#ABCE41"/>
</g>
<defs>
<clipPath id="clip0_1501_3280">
<rect width="72.69" height="32.0016" fill="white" transform="translate(0 -0.000976562)"/>
</clipPath>
</defs>
</svg>
